<?xml version="1.0" standalone="no"?>
<!DOCTYPE svg PUBLIC "-//W3C//DTD SVG 20010904//EN"
 "http://www.w3.org/TR/2001/REC-SVG-20010904/DTD/svg10.dtd">
<svg version="1.0" xmlns="http://www.w3.org/2000/svg"
 width="229.000000pt" height="71.000000pt" viewBox="0 0 229.000000 71.000000"
 preserveAspectRatio="xMidYMid meet">

<g transform="translate(0.000000,71.000000) scale(0.100000,-0.100000)"
fill="#000000" stroke="none">
<path d="M270 685 c-11 -13 -11 -18 0 -28 10 -9 11 -9 6 1 -4 7 -2 19 4 27 7
8 10 15 7 15 -2 0 -10 -7 -17 -15z"/>
<path d="M283 633 c-41 -8 -20 -53 23 -53 25 0 54 24 54 46 0 14 -28 17 -77 7z"/>
<path d="M555 620 c-17 -7 -16 -9 10 -9 17 0 37 4 45 9 12 8 10 10 -10 9 -14
0 -34 -4 -45 -9z"/>
<path d="M388 570 c-55 -29 -86 -77 -104 -161 -9 -41 -23 -87 -31 -103 -18
-36 -102 -126 -116 -126 -6 0 7 19 30 43 65 66 86 118 91 220 l4 87 -128 -2
-129 -2 115 -5 c99 -5 115 -8 118 -23 3 -16 -6 -18 -75 -20 l-78 -2 80 -5 c62
-5 80 -9 80 -21 0 -12 -16 -16 -75 -18 -106 -4 -115 -22 -11 -22 73 0 82 -2
79 -17 -2 -13 -16 -19 -53 -24 l-50 -5 45 -5 c31 -3 45 -9 45 -19 0 -12 -20
-16 -95 -20 l-95 -6 80 -4 c66 -4 80 -8 83 -22 3 -15 -5 -18 -55 -20 -51 -1
-53 -2 -15 -5 60 -6 53 -26 -26 -79 l-64 -42 21 -21 c28 -28 60 -26 107 5 58
38 93 74 121 122 14 23 28 42 32 42 5 0 16 -9 27 -21 27 -30 61 -45 119 -53
53 -7 105 -45 105 -78 0 -21 20 -24 38 -6 39 39 -36 138 -105 138 -105 0 -184
92 -149 173 25 58 59 81 131 85 69 5 80 15 47 45 -25 23 -98 21 -144 -3z"/>
<path d="M836 490 c-83 -25 -118 -129 -73 -218 17 -35 62 -54 124 -53 60 0 74
6 67 25 -5 14 -60 10 -70 -5 -9 -16 -55 -10 -85 12 -46 32 -59 120 -27 182 12
24 84 57 123 56 25 0 21 -3 -18 -13 -27 -8 -58 -22 -69 -33 -23 -23 -38 -80
-31 -118 6 -31 58 -85 81 -85 11 0 5 7 -15 20 -41 24 -53 48 -53 102 0 35 6
50 28 71 32 31 81 44 110 28 16 -9 21 -7 25 8 7 28 -55 39 -117 21z m97 -257
c-7 -2 -19 -2 -25 0 -7 3 -2 5 12 5 14 0 19 -2 13 -5z"/>
<path d="M1423 486 c-47 -21 -73 -70 -73 -136 0 -94 43 -142 126 -142 52 0 87
20 109 61 13 26 13 30 -1 35 -19 7 -34 -1 -34 -19 0 -32 -70 -56 -115 -39 -25
10 -45 59 -45 114 0 41 5 56 25 75 34 35 96 35 123 0 20 -25 52 -34 52 -15 0
5 -12 24 -27 40 -34 37 -91 48 -140 26z"/>
<path d="M409 461 c-16 -16 -29 -38 -29 -49 0 -20 1 -20 43 1 23 12 43 22 44
22 1 0 4 12 8 28 6 23 4 27 -15 27 -12 0 -35 -13 -51 -29z"/>
<path d="M517 468 c-9 -32 0 -38 46 -36 l42 1 -37 4 c-29 3 -38 9 -38 23 0 13
9 20 28 23 26 4 26 4 -4 6 -25 1 -33 -4 -37 -21z"/>
<path d="M1020 350 l0 -140 90 0 c72 0 90 3 90 15 0 11 -16 15 -67 17 l-68 3
-3 123 c-2 114 -4 122 -22 122 -19 0 -20 -7 -20 -140z"/>
<path d="M1250 350 c0 -133 1 -140 20 -140 19 0 20 7 20 140 0 133 -1 140 -20
140 -19 0 -20 -7 -20 -140z"/>
<path d="M1640 350 c0 -133 1 -140 20 -140 17 0 20 7 20 48 0 38 5 53 24 71
l24 23 48 -71 c36 -52 55 -71 72 -71 12 0 22 3 22 6 0 3 -27 41 -59 84 l-59
79 58 55 c55 53 57 56 32 56 -19 0 -45 -18 -94 -67 l-68 -67 0 67 c0 60 -2 67
-20 67 -19 0 -20 -7 -20 -140z"/>
<path d="M623 423 c9 -2 23 -2 30 0 6 3 -1 5 -18 5 -16 0 -22 -2 -12 -5z"/>
<path d="M870 325 c0 -8 2 -15 4 -15 2 0 6 7 10 15 3 8 1 15 -4 15 -6 0 -10
-7 -10 -15z"/>
<path d="M1010 130 c0 -5 4 -10 9 -10 5 0 14 -14 20 -32 6 -17 14 -29 16 -26
8 7 -26 78 -37 78 -4 0 -8 -4 -8 -10z"/>
<path d="M1092 95 c1 -45 1 -47 7 -15 l6 35 22 -35 c13 -19 23 -29 23 -22 0 7
-5 18 -10 25 -6 7 -19 23 -30 37 l-19 25 1 -50z"/>
<path d="M1152 115 c0 -16 2 -22 5 -12 2 9 2 23 0 30 -3 6 -5 -1 -5 -18z"/>
<path d="M1184 100 c0 -42 16 -57 49 -44 42 16 25 84 -21 84 -25 0 -27 -3 -28
-40z m61 10 c7 -23 -10 -50 -31 -50 -9 0 -14 12 -14 35 0 28 4 35 19 35 11 0
23 -9 26 -20z"/>
<path d="M1327 133 c-13 -12 -7 -23 24 -39 23 -12 28 -19 20 -27 -9 -9 -17 -8
-32 2 -18 10 -20 10 -17 -1 6 -18 36 -22 53 -8 22 19 18 30 -15 41 -36 13 -40
33 -5 27 14 -3 25 -1 25 3 0 10 -44 12 -53 2z"/>
<path d="M1412 98 c3 -40 5 -43 33 -44 28 -1 28 -1 3 3 -16 2 -28 10 -28 18 0
8 12 16 28 18 l27 4 -27 2 c-40 2 -36 29 5 34 31 4 31 4 -6 5 l-38 2 3 -42z"/>
<path d="M1502 93 c1 -37 2 -40 5 -15 5 36 18 42 28 13 3 -11 12 -25 20 -31
13 -11 15 -5 14 36 -2 46 -2 47 -8 14 l-6 -35 -20 33 c-11 17 -23 32 -27 32
-4 0 -7 -21 -6 -47z"/>
<path d="M1600 96 c0 -41 2 -46 23 -45 16 1 18 2 5 6 -13 3 -18 15 -18 39 0
31 3 35 23 32 18 -2 22 -9 22 -35 0 -18 4 -28 8 -24 5 5 7 21 5 37 -2 25 -8
29 -35 32 -33 3 -33 3 -33 -42z"/>
<path d="M993 78 c-10 -26 -10 -30 0 -17 7 9 19 14 27 12 10 -3 11 -2 4 4 -6
4 -13 14 -15 21 -2 7 -10 -2 -16 -20z"/>
</g>
</svg>
